<mxfile host="app.diagrams.net" modified="2022-12-27T06:15:10.064Z" agent="5.0 (Windows NT 10.0; Win64; x64) AppleWebKit/537.36 (KHTML, like Gecko) Chrome/108.0.0.0 Safari/537.36" version="20.7.2" etag="JH5gr7f5xHP3CG2ytu0m" type="github">
  <diagram id="C9G8V5Rgqqo2AVioBu7W" name="第 1 页">
    <mxGraphModel dx="281" dy="-1393" grid="1" gridSize="10" guides="1" tooltips="1" connect="1" arrows="1" fold="1" page="1" pageScale="1" pageWidth="827" pageHeight="1169" math="0" shadow="0">
      <root>
        <mxCell id="0" />
        <mxCell id="1" parent="0" />
        <mxCell id="PAuHiyZ5nTzHcIfETweL-1" value="x1" style="ellipse;whiteSpace=wrap;html=1;aspect=fixed;" vertex="1" parent="1">
          <mxGeometry x="1093" y="3352" width="39" height="39" as="geometry" />
        </mxCell>
        <mxCell id="PAuHiyZ5nTzHcIfETweL-2" value="x2" style="ellipse;whiteSpace=wrap;html=1;aspect=fixed;" vertex="1" parent="1">
          <mxGeometry x="1093" y="3405" width="39" height="39" as="geometry" />
        </mxCell>
        <mxCell id="PAuHiyZ5nTzHcIfETweL-3" value="x3" style="ellipse;whiteSpace=wrap;html=1;aspect=fixed;" vertex="1" parent="1">
          <mxGeometry x="1093" y="3455" width="39" height="39" as="geometry" />
        </mxCell>
        <mxCell id="PAuHiyZ5nTzHcIfETweL-4" value="x4" style="ellipse;whiteSpace=wrap;html=1;aspect=fixed;" vertex="1" parent="1">
          <mxGeometry x="1093" y="3505" width="39" height="39" as="geometry" />
        </mxCell>
        <mxCell id="PAuHiyZ5nTzHcIfETweL-5" value="x5" style="ellipse;whiteSpace=wrap;html=1;aspect=fixed;" vertex="1" parent="1">
          <mxGeometry x="1093" y="3556.5" width="39" height="39" as="geometry" />
        </mxCell>
        <mxCell id="PAuHiyZ5nTzHcIfETweL-6" value="x6" style="ellipse;whiteSpace=wrap;html=1;aspect=fixed;" vertex="1" parent="1">
          <mxGeometry x="1093" y="3606" width="39" height="39" as="geometry" />
        </mxCell>
        <mxCell id="PAuHiyZ5nTzHcIfETweL-7" value="x7" style="ellipse;whiteSpace=wrap;html=1;aspect=fixed;" vertex="1" parent="1">
          <mxGeometry x="1093" y="3654" width="39" height="39" as="geometry" />
        </mxCell>
        <mxCell id="PAuHiyZ5nTzHcIfETweL-8" value="x8" style="ellipse;whiteSpace=wrap;html=1;aspect=fixed;" vertex="1" parent="1">
          <mxGeometry x="1093" y="3702" width="39" height="39" as="geometry" />
        </mxCell>
        <mxCell id="PAuHiyZ5nTzHcIfETweL-9" value="1" style="ellipse;whiteSpace=wrap;html=1;aspect=fixed;" vertex="1" parent="1">
          <mxGeometry x="1093" y="3305" width="39" height="39" as="geometry" />
        </mxCell>
        <mxCell id="PAuHiyZ5nTzHcIfETweL-10" value="bias1" style="text;html=1;align=center;verticalAlign=middle;resizable=0;points=[];autosize=1;strokeColor=none;fillColor=none;" vertex="1" parent="1">
          <mxGeometry x="1089" y="3275" width="47" height="26" as="geometry" />
        </mxCell>
        <mxCell id="PAuHiyZ5nTzHcIfETweL-11" value="x9" style="ellipse;whiteSpace=wrap;html=1;aspect=fixed;" vertex="1" parent="1">
          <mxGeometry x="1093" y="3750" width="39" height="39" as="geometry" />
        </mxCell>
        <mxCell id="PAuHiyZ5nTzHcIfETweL-12" value="磁&lt;br&gt;盘&lt;br&gt;IO&lt;br&gt;特&lt;br&gt;征&lt;br&gt;向&lt;br&gt;量" style="text;html=1;align=center;verticalAlign=middle;resizable=0;points=[];autosize=1;strokeColor=none;fillColor=none;" vertex="1" parent="1">
          <mxGeometry x="1026" y="3465" width="31" height="113" as="geometry" />
        </mxCell>
        <mxCell id="PAuHiyZ5nTzHcIfETweL-13" value="a1" style="ellipse;whiteSpace=wrap;html=1;aspect=fixed;" vertex="1" parent="1">
          <mxGeometry x="1217" y="3352" width="39" height="39" as="geometry" />
        </mxCell>
        <mxCell id="PAuHiyZ5nTzHcIfETweL-14" value="a2" style="ellipse;whiteSpace=wrap;html=1;aspect=fixed;" vertex="1" parent="1">
          <mxGeometry x="1217" y="3405" width="39" height="39" as="geometry" />
        </mxCell>
        <mxCell id="PAuHiyZ5nTzHcIfETweL-15" value="a3" style="ellipse;whiteSpace=wrap;html=1;aspect=fixed;" vertex="1" parent="1">
          <mxGeometry x="1217" y="3455" width="39" height="39" as="geometry" />
        </mxCell>
        <mxCell id="PAuHiyZ5nTzHcIfETweL-16" value="a4" style="ellipse;whiteSpace=wrap;html=1;aspect=fixed;" vertex="1" parent="1">
          <mxGeometry x="1217" y="3505" width="39" height="39" as="geometry" />
        </mxCell>
        <mxCell id="PAuHiyZ5nTzHcIfETweL-17" value="a5" style="ellipse;whiteSpace=wrap;html=1;aspect=fixed;" vertex="1" parent="1">
          <mxGeometry x="1217" y="3556.5" width="39" height="39" as="geometry" />
        </mxCell>
        <mxCell id="PAuHiyZ5nTzHcIfETweL-18" value="a6" style="ellipse;whiteSpace=wrap;html=1;aspect=fixed;" vertex="1" parent="1">
          <mxGeometry x="1217" y="3606" width="39" height="39" as="geometry" />
        </mxCell>
        <mxCell id="PAuHiyZ5nTzHcIfETweL-19" value="a7" style="ellipse;whiteSpace=wrap;html=1;aspect=fixed;" vertex="1" parent="1">
          <mxGeometry x="1217" y="3654" width="39" height="39" as="geometry" />
        </mxCell>
        <mxCell id="PAuHiyZ5nTzHcIfETweL-20" value="a8" style="ellipse;whiteSpace=wrap;html=1;aspect=fixed;" vertex="1" parent="1">
          <mxGeometry x="1217" y="3702" width="39" height="39" as="geometry" />
        </mxCell>
        <mxCell id="PAuHiyZ5nTzHcIfETweL-21" value="a9" style="ellipse;whiteSpace=wrap;html=1;aspect=fixed;" vertex="1" parent="1">
          <mxGeometry x="1217" y="3750" width="39" height="39" as="geometry" />
        </mxCell>
        <mxCell id="PAuHiyZ5nTzHcIfETweL-22" value="1" style="ellipse;whiteSpace=wrap;html=1;aspect=fixed;" vertex="1" parent="1">
          <mxGeometry x="1217" y="3305" width="39" height="39" as="geometry" />
        </mxCell>
        <mxCell id="PAuHiyZ5nTzHcIfETweL-23" value="bias2" style="text;html=1;align=center;verticalAlign=middle;resizable=0;points=[];autosize=1;strokeColor=none;fillColor=none;" vertex="1" parent="1">
          <mxGeometry x="1213" y="3275" width="47" height="26" as="geometry" />
        </mxCell>
        <mxCell id="PAuHiyZ5nTzHcIfETweL-24" value="a10" style="ellipse;whiteSpace=wrap;html=1;aspect=fixed;" vertex="1" parent="1">
          <mxGeometry x="1217" y="3798" width="39" height="39" as="geometry" />
        </mxCell>
        <mxCell id="PAuHiyZ5nTzHcIfETweL-25" value="a1" style="ellipse;whiteSpace=wrap;html=1;aspect=fixed;" vertex="1" parent="1">
          <mxGeometry x="1337" y="3348" width="39" height="39" as="geometry" />
        </mxCell>
        <mxCell id="PAuHiyZ5nTzHcIfETweL-26" value="a2" style="ellipse;whiteSpace=wrap;html=1;aspect=fixed;" vertex="1" parent="1">
          <mxGeometry x="1337" y="3401" width="39" height="39" as="geometry" />
        </mxCell>
        <mxCell id="PAuHiyZ5nTzHcIfETweL-27" value="a3" style="ellipse;whiteSpace=wrap;html=1;aspect=fixed;" vertex="1" parent="1">
          <mxGeometry x="1337" y="3451" width="39" height="39" as="geometry" />
        </mxCell>
        <mxCell id="PAuHiyZ5nTzHcIfETweL-28" value="a4" style="ellipse;whiteSpace=wrap;html=1;aspect=fixed;" vertex="1" parent="1">
          <mxGeometry x="1337" y="3501" width="39" height="39" as="geometry" />
        </mxCell>
        <mxCell id="PAuHiyZ5nTzHcIfETweL-29" value="a5" style="ellipse;whiteSpace=wrap;html=1;aspect=fixed;" vertex="1" parent="1">
          <mxGeometry x="1337" y="3552.5" width="39" height="39" as="geometry" />
        </mxCell>
        <mxCell id="PAuHiyZ5nTzHcIfETweL-30" value="a6" style="ellipse;whiteSpace=wrap;html=1;aspect=fixed;" vertex="1" parent="1">
          <mxGeometry x="1337" y="3602" width="39" height="39" as="geometry" />
        </mxCell>
        <mxCell id="PAuHiyZ5nTzHcIfETweL-31" value="a7" style="ellipse;whiteSpace=wrap;html=1;aspect=fixed;" vertex="1" parent="1">
          <mxGeometry x="1337" y="3650" width="39" height="39" as="geometry" />
        </mxCell>
        <mxCell id="PAuHiyZ5nTzHcIfETweL-32" value="a8" style="ellipse;whiteSpace=wrap;html=1;aspect=fixed;" vertex="1" parent="1">
          <mxGeometry x="1337" y="3698" width="39" height="39" as="geometry" />
        </mxCell>
        <mxCell id="PAuHiyZ5nTzHcIfETweL-33" value="a9" style="ellipse;whiteSpace=wrap;html=1;aspect=fixed;" vertex="1" parent="1">
          <mxGeometry x="1337" y="3746" width="39" height="39" as="geometry" />
        </mxCell>
        <mxCell id="PAuHiyZ5nTzHcIfETweL-34" value="1" style="ellipse;whiteSpace=wrap;html=1;aspect=fixed;" vertex="1" parent="1">
          <mxGeometry x="1337" y="3301" width="39" height="39" as="geometry" />
        </mxCell>
        <mxCell id="PAuHiyZ5nTzHcIfETweL-35" value="a10" style="ellipse;whiteSpace=wrap;html=1;aspect=fixed;" vertex="1" parent="1">
          <mxGeometry x="1337" y="3794" width="39" height="39" as="geometry" />
        </mxCell>
        <mxCell id="PAuHiyZ5nTzHcIfETweL-36" value="bias3" style="text;html=1;align=center;verticalAlign=middle;resizable=0;points=[];autosize=1;strokeColor=none;fillColor=none;" vertex="1" parent="1">
          <mxGeometry x="1333" y="3267" width="47" height="26" as="geometry" />
        </mxCell>
        <mxCell id="PAuHiyZ5nTzHcIfETweL-37" value="∑" style="ellipse;whiteSpace=wrap;html=1;aspect=fixed;" vertex="1" parent="1">
          <mxGeometry x="1435" y="3505" width="39" height="39" as="geometry" />
        </mxCell>
        <mxCell id="PAuHiyZ5nTzHcIfETweL-38" value="∑" style="ellipse;whiteSpace=wrap;html=1;aspect=fixed;" vertex="1" parent="1">
          <mxGeometry x="1435" y="3567" width="39" height="39" as="geometry" />
        </mxCell>
        <mxCell id="PAuHiyZ5nTzHcIfETweL-39" value="softmax" style="rounded=0;whiteSpace=wrap;html=1;fontSize=25;rotation=-90;" vertex="1" parent="1">
          <mxGeometry x="1426" y="3528" width="182" height="45" as="geometry" />
        </mxCell>
        <mxCell id="PAuHiyZ5nTzHcIfETweL-40" value="Out1" style="ellipse;whiteSpace=wrap;html=1;aspect=fixed;" vertex="1" parent="1">
          <mxGeometry x="1569" y="3505" width="39" height="39" as="geometry" />
        </mxCell>
        <mxCell id="PAuHiyZ5nTzHcIfETweL-41" value="Out2" style="ellipse;whiteSpace=wrap;html=1;aspect=fixed;" vertex="1" parent="1">
          <mxGeometry x="1569" y="3567" width="39" height="39" as="geometry" />
        </mxCell>
        <mxCell id="PAuHiyZ5nTzHcIfETweL-42" value="磁盘故障" style="text;html=1;align=center;verticalAlign=middle;resizable=0;points=[];autosize=1;strokeColor=none;fillColor=none;fontSize=16;" vertex="1" parent="1">
          <mxGeometry x="1636" y="3511" width="82" height="31" as="geometry" />
        </mxCell>
        <mxCell id="PAuHiyZ5nTzHcIfETweL-43" value="磁盘正常" style="text;html=1;align=center;verticalAlign=middle;resizable=0;points=[];autosize=1;strokeColor=none;fillColor=none;fontSize=16;" vertex="1" parent="1">
          <mxGeometry x="1636" y="3573" width="82" height="31" as="geometry" />
        </mxCell>
        <mxCell id="PAuHiyZ5nTzHcIfETweL-44" value="" style="endArrow=classic;html=1;rounded=0;fontSize=16;exitX=1;exitY=0.5;exitDx=0;exitDy=0;entryX=0;entryY=0.5;entryDx=0;entryDy=0;" edge="1" parent="1" source="PAuHiyZ5nTzHcIfETweL-9" target="PAuHiyZ5nTzHcIfETweL-22">
          <mxGeometry width="50" height="50" relative="1" as="geometry">
            <mxPoint x="1312" y="3616" as="sourcePoint" />
            <mxPoint x="1362" y="3566" as="targetPoint" />
          </mxGeometry>
        </mxCell>
        <mxCell id="PAuHiyZ5nTzHcIfETweL-45" value="" style="endArrow=classic;html=1;rounded=0;fontSize=16;exitX=1;exitY=0.5;exitDx=0;exitDy=0;entryX=0;entryY=0.5;entryDx=0;entryDy=0;" edge="1" parent="1" source="PAuHiyZ5nTzHcIfETweL-9" target="PAuHiyZ5nTzHcIfETweL-13">
          <mxGeometry width="50" height="50" relative="1" as="geometry">
            <mxPoint x="1142" y="3334.5" as="sourcePoint" />
            <mxPoint x="1227" y="3334.5" as="targetPoint" />
          </mxGeometry>
        </mxCell>
        <mxCell id="PAuHiyZ5nTzHcIfETweL-46" value="" style="endArrow=classic;html=1;rounded=0;fontSize=16;exitX=1;exitY=0.5;exitDx=0;exitDy=0;entryX=0;entryY=0.5;entryDx=0;entryDy=0;" edge="1" parent="1" source="PAuHiyZ5nTzHcIfETweL-9" target="PAuHiyZ5nTzHcIfETweL-14">
          <mxGeometry width="50" height="50" relative="1" as="geometry">
            <mxPoint x="1152" y="3344.5" as="sourcePoint" />
            <mxPoint x="1237" y="3344.5" as="targetPoint" />
          </mxGeometry>
        </mxCell>
        <mxCell id="PAuHiyZ5nTzHcIfETweL-47" value="" style="endArrow=classic;html=1;rounded=0;fontSize=16;exitX=1;exitY=0.5;exitDx=0;exitDy=0;entryX=0;entryY=0.5;entryDx=0;entryDy=0;" edge="1" parent="1" source="PAuHiyZ5nTzHcIfETweL-9" target="PAuHiyZ5nTzHcIfETweL-15">
          <mxGeometry width="50" height="50" relative="1" as="geometry">
            <mxPoint x="1162" y="3354.5" as="sourcePoint" />
            <mxPoint x="1247" y="3354.5" as="targetPoint" />
          </mxGeometry>
        </mxCell>
        <mxCell id="PAuHiyZ5nTzHcIfETweL-48" value="" style="endArrow=classic;html=1;rounded=0;fontSize=16;entryX=0;entryY=0.5;entryDx=0;entryDy=0;" edge="1" parent="1" target="PAuHiyZ5nTzHcIfETweL-16">
          <mxGeometry width="50" height="50" relative="1" as="geometry">
            <mxPoint x="1132" y="3325" as="sourcePoint" />
            <mxPoint x="1257" y="3364.5" as="targetPoint" />
          </mxGeometry>
        </mxCell>
        <mxCell id="PAuHiyZ5nTzHcIfETweL-49" value="" style="endArrow=classic;html=1;rounded=0;fontSize=16;entryX=0;entryY=0.5;entryDx=0;entryDy=0;" edge="1" parent="1" target="PAuHiyZ5nTzHcIfETweL-17">
          <mxGeometry width="50" height="50" relative="1" as="geometry">
            <mxPoint x="1132" y="3326" as="sourcePoint" />
            <mxPoint x="1267" y="3374.5" as="targetPoint" />
          </mxGeometry>
        </mxCell>
        <mxCell id="PAuHiyZ5nTzHcIfETweL-50" value="" style="endArrow=classic;html=1;rounded=0;fontSize=16;entryX=0;entryY=0.5;entryDx=0;entryDy=0;" edge="1" parent="1" target="PAuHiyZ5nTzHcIfETweL-18">
          <mxGeometry width="50" height="50" relative="1" as="geometry">
            <mxPoint x="1131" y="3327" as="sourcePoint" />
            <mxPoint x="1277" y="3384.5" as="targetPoint" />
          </mxGeometry>
        </mxCell>
        <mxCell id="PAuHiyZ5nTzHcIfETweL-51" value="" style="endArrow=classic;html=1;rounded=0;fontSize=16;entryX=0;entryY=0.5;entryDx=0;entryDy=0;" edge="1" parent="1" target="PAuHiyZ5nTzHcIfETweL-19">
          <mxGeometry width="50" height="50" relative="1" as="geometry">
            <mxPoint x="1133" y="3327" as="sourcePoint" />
            <mxPoint x="1287" y="3394.5" as="targetPoint" />
          </mxGeometry>
        </mxCell>
        <mxCell id="PAuHiyZ5nTzHcIfETweL-52" value="" style="endArrow=classic;html=1;rounded=0;fontSize=16;entryX=0;entryY=0.5;entryDx=0;entryDy=0;" edge="1" parent="1" target="PAuHiyZ5nTzHcIfETweL-20">
          <mxGeometry width="50" height="50" relative="1" as="geometry">
            <mxPoint x="1134" y="3329" as="sourcePoint" />
            <mxPoint x="1297" y="3404.5" as="targetPoint" />
          </mxGeometry>
        </mxCell>
        <mxCell id="PAuHiyZ5nTzHcIfETweL-53" value="" style="endArrow=classic;html=1;rounded=0;fontSize=16;exitX=1;exitY=0.5;exitDx=0;exitDy=0;entryX=0;entryY=0.5;entryDx=0;entryDy=0;" edge="1" parent="1" source="PAuHiyZ5nTzHcIfETweL-9" target="PAuHiyZ5nTzHcIfETweL-21">
          <mxGeometry width="50" height="50" relative="1" as="geometry">
            <mxPoint x="1222" y="3414.5" as="sourcePoint" />
            <mxPoint x="1307" y="3414.5" as="targetPoint" />
          </mxGeometry>
        </mxCell>
        <mxCell id="PAuHiyZ5nTzHcIfETweL-54" value="" style="endArrow=classic;html=1;rounded=0;fontSize=16;entryX=0;entryY=0.5;entryDx=0;entryDy=0;" edge="1" parent="1" target="PAuHiyZ5nTzHcIfETweL-24">
          <mxGeometry width="50" height="50" relative="1" as="geometry">
            <mxPoint x="1132" y="3326" as="sourcePoint" />
            <mxPoint x="1317" y="3424.5" as="targetPoint" />
          </mxGeometry>
        </mxCell>
        <mxCell id="PAuHiyZ5nTzHcIfETweL-55" value="" style="endArrow=classic;html=1;rounded=0;fontSize=16;exitX=1;exitY=0.5;exitDx=0;exitDy=0;entryX=0;entryY=0.5;entryDx=0;entryDy=0;" edge="1" parent="1" source="PAuHiyZ5nTzHcIfETweL-1" target="PAuHiyZ5nTzHcIfETweL-22">
          <mxGeometry width="50" height="50" relative="1" as="geometry">
            <mxPoint x="1242" y="3434.5" as="sourcePoint" />
            <mxPoint x="1327" y="3434.5" as="targetPoint" />
          </mxGeometry>
        </mxCell>
        <mxCell id="PAuHiyZ5nTzHcIfETweL-56" value="" style="endArrow=classic;html=1;rounded=0;fontSize=16;exitX=1;exitY=0.5;exitDx=0;exitDy=0;" edge="1" parent="1" source="PAuHiyZ5nTzHcIfETweL-1">
          <mxGeometry width="50" height="50" relative="1" as="geometry">
            <mxPoint x="1252" y="3444.5" as="sourcePoint" />
            <mxPoint x="1216" y="3372" as="targetPoint" />
          </mxGeometry>
        </mxCell>
        <mxCell id="PAuHiyZ5nTzHcIfETweL-57" value="" style="endArrow=classic;html=1;rounded=0;fontSize=16;exitX=1;exitY=0.5;exitDx=0;exitDy=0;entryX=0;entryY=0.5;entryDx=0;entryDy=0;" edge="1" parent="1" source="PAuHiyZ5nTzHcIfETweL-1" target="PAuHiyZ5nTzHcIfETweL-14">
          <mxGeometry width="50" height="50" relative="1" as="geometry">
            <mxPoint x="1272" y="3464.5" as="sourcePoint" />
            <mxPoint x="1357" y="3464.5" as="targetPoint" />
          </mxGeometry>
        </mxCell>
        <mxCell id="PAuHiyZ5nTzHcIfETweL-58" value="" style="endArrow=classic;html=1;rounded=0;fontSize=16;exitX=1;exitY=0.5;exitDx=0;exitDy=0;" edge="1" parent="1" source="PAuHiyZ5nTzHcIfETweL-1">
          <mxGeometry width="50" height="50" relative="1" as="geometry">
            <mxPoint x="1282" y="3474.5" as="sourcePoint" />
            <mxPoint x="1216" y="3470" as="targetPoint" />
          </mxGeometry>
        </mxCell>
        <mxCell id="PAuHiyZ5nTzHcIfETweL-59" value="" style="endArrow=classic;html=1;rounded=0;fontSize=16;exitX=1;exitY=0.5;exitDx=0;exitDy=0;entryX=0;entryY=0.5;entryDx=0;entryDy=0;" edge="1" parent="1" source="PAuHiyZ5nTzHcIfETweL-1" target="PAuHiyZ5nTzHcIfETweL-16">
          <mxGeometry width="50" height="50" relative="1" as="geometry">
            <mxPoint x="1292" y="3484.5" as="sourcePoint" />
            <mxPoint x="1377" y="3484.5" as="targetPoint" />
          </mxGeometry>
        </mxCell>
        <mxCell id="PAuHiyZ5nTzHcIfETweL-60" value="" style="endArrow=classic;html=1;rounded=0;fontSize=16;exitX=1;exitY=0.5;exitDx=0;exitDy=0;entryX=0;entryY=0.5;entryDx=0;entryDy=0;" edge="1" parent="1" source="PAuHiyZ5nTzHcIfETweL-1" target="PAuHiyZ5nTzHcIfETweL-17">
          <mxGeometry width="50" height="50" relative="1" as="geometry">
            <mxPoint x="1302" y="3494.5" as="sourcePoint" />
            <mxPoint x="1387" y="3494.5" as="targetPoint" />
          </mxGeometry>
        </mxCell>
        <mxCell id="PAuHiyZ5nTzHcIfETweL-61" value="" style="endArrow=classic;html=1;rounded=0;fontSize=16;exitX=1;exitY=0.5;exitDx=0;exitDy=0;entryX=0;entryY=0.5;entryDx=0;entryDy=0;" edge="1" parent="1" source="PAuHiyZ5nTzHcIfETweL-1" target="PAuHiyZ5nTzHcIfETweL-18">
          <mxGeometry width="50" height="50" relative="1" as="geometry">
            <mxPoint x="1312" y="3504.5" as="sourcePoint" />
            <mxPoint x="1397" y="3504.5" as="targetPoint" />
          </mxGeometry>
        </mxCell>
        <mxCell id="PAuHiyZ5nTzHcIfETweL-62" value="" style="endArrow=classic;html=1;rounded=0;fontSize=16;exitX=1;exitY=0.5;exitDx=0;exitDy=0;entryX=0;entryY=0.5;entryDx=0;entryDy=0;" edge="1" parent="1" source="PAuHiyZ5nTzHcIfETweL-1" target="PAuHiyZ5nTzHcIfETweL-19">
          <mxGeometry width="50" height="50" relative="1" as="geometry">
            <mxPoint x="1322" y="3514.5" as="sourcePoint" />
            <mxPoint x="1407" y="3514.5" as="targetPoint" />
          </mxGeometry>
        </mxCell>
        <mxCell id="PAuHiyZ5nTzHcIfETweL-63" value="" style="endArrow=classic;html=1;rounded=0;fontSize=16;entryX=0;entryY=0.5;entryDx=0;entryDy=0;" edge="1" parent="1" target="PAuHiyZ5nTzHcIfETweL-20">
          <mxGeometry width="50" height="50" relative="1" as="geometry">
            <mxPoint x="1131" y="3374" as="sourcePoint" />
            <mxPoint x="1417" y="3524.5" as="targetPoint" />
          </mxGeometry>
        </mxCell>
        <mxCell id="PAuHiyZ5nTzHcIfETweL-64" value="" style="endArrow=classic;html=1;rounded=0;fontSize=16;entryX=0;entryY=0.5;entryDx=0;entryDy=0;" edge="1" parent="1" target="PAuHiyZ5nTzHcIfETweL-21">
          <mxGeometry width="50" height="50" relative="1" as="geometry">
            <mxPoint x="1132" y="3372" as="sourcePoint" />
            <mxPoint x="1427" y="3534.5" as="targetPoint" />
          </mxGeometry>
        </mxCell>
        <mxCell id="PAuHiyZ5nTzHcIfETweL-65" value="" style="endArrow=classic;html=1;rounded=0;fontSize=16;exitX=1;exitY=0.5;exitDx=0;exitDy=0;" edge="1" parent="1" source="PAuHiyZ5nTzHcIfETweL-1">
          <mxGeometry width="50" height="50" relative="1" as="geometry">
            <mxPoint x="1352" y="3544.5" as="sourcePoint" />
            <mxPoint x="1216" y="3816" as="targetPoint" />
          </mxGeometry>
        </mxCell>
        <mxCell id="PAuHiyZ5nTzHcIfETweL-66" value="" style="endArrow=classic;html=1;rounded=0;fontSize=16;exitX=1;exitY=0.5;exitDx=0;exitDy=0;" edge="1" parent="1" source="PAuHiyZ5nTzHcIfETweL-2">
          <mxGeometry width="50" height="50" relative="1" as="geometry">
            <mxPoint x="1362" y="3554.5" as="sourcePoint" />
            <mxPoint x="1215" y="3324" as="targetPoint" />
          </mxGeometry>
        </mxCell>
        <mxCell id="PAuHiyZ5nTzHcIfETweL-67" value="" style="endArrow=classic;html=1;rounded=0;fontSize=16;exitX=1;exitY=0.5;exitDx=0;exitDy=0;entryX=0;entryY=0.5;entryDx=0;entryDy=0;" edge="1" parent="1" source="PAuHiyZ5nTzHcIfETweL-2" target="PAuHiyZ5nTzHcIfETweL-13">
          <mxGeometry width="50" height="50" relative="1" as="geometry">
            <mxPoint x="1372" y="3564.5" as="sourcePoint" />
            <mxPoint x="1457" y="3564.5" as="targetPoint" />
          </mxGeometry>
        </mxCell>
        <mxCell id="PAuHiyZ5nTzHcIfETweL-68" value="" style="endArrow=classic;html=1;rounded=0;fontSize=16;entryX=0;entryY=0.5;entryDx=0;entryDy=0;" edge="1" parent="1" target="PAuHiyZ5nTzHcIfETweL-14">
          <mxGeometry width="50" height="50" relative="1" as="geometry">
            <mxPoint x="1129" y="3422" as="sourcePoint" />
            <mxPoint x="1467" y="3574.5" as="targetPoint" />
          </mxGeometry>
        </mxCell>
        <mxCell id="PAuHiyZ5nTzHcIfETweL-69" value="" style="endArrow=classic;html=1;rounded=0;fontSize=16;exitX=1;exitY=0.5;exitDx=0;exitDy=0;entryX=0;entryY=0.5;entryDx=0;entryDy=0;" edge="1" parent="1" source="PAuHiyZ5nTzHcIfETweL-2" target="PAuHiyZ5nTzHcIfETweL-15">
          <mxGeometry width="50" height="50" relative="1" as="geometry">
            <mxPoint x="1392" y="3584.5" as="sourcePoint" />
            <mxPoint x="1477" y="3584.5" as="targetPoint" />
          </mxGeometry>
        </mxCell>
        <mxCell id="PAuHiyZ5nTzHcIfETweL-70" value="" style="endArrow=classic;html=1;rounded=0;fontSize=16;" edge="1" parent="1">
          <mxGeometry width="50" height="50" relative="1" as="geometry">
            <mxPoint x="1132" y="3426" as="sourcePoint" />
            <mxPoint x="1216" y="3520" as="targetPoint" />
          </mxGeometry>
        </mxCell>
        <mxCell id="PAuHiyZ5nTzHcIfETweL-71" value="" style="endArrow=classic;html=1;rounded=0;fontSize=16;" edge="1" parent="1">
          <mxGeometry width="50" height="50" relative="1" as="geometry">
            <mxPoint x="1130" y="3424" as="sourcePoint" />
            <mxPoint x="1216" y="3576" as="targetPoint" />
          </mxGeometry>
        </mxCell>
        <mxCell id="PAuHiyZ5nTzHcIfETweL-72" value="" style="endArrow=classic;html=1;rounded=0;fontSize=16;exitX=1;exitY=0.5;exitDx=0;exitDy=0;entryX=0;entryY=0.5;entryDx=0;entryDy=0;" edge="1" parent="1" source="PAuHiyZ5nTzHcIfETweL-3" target="PAuHiyZ5nTzHcIfETweL-22">
          <mxGeometry width="50" height="50" relative="1" as="geometry">
            <mxPoint x="1422" y="3614.5" as="sourcePoint" />
            <mxPoint x="1507" y="3614.5" as="targetPoint" />
          </mxGeometry>
        </mxCell>
        <mxCell id="PAuHiyZ5nTzHcIfETweL-73" value="" style="endArrow=classic;html=1;rounded=0;fontSize=16;exitX=1;exitY=0.5;exitDx=0;exitDy=0;" edge="1" parent="1" source="PAuHiyZ5nTzHcIfETweL-3">
          <mxGeometry width="50" height="50" relative="1" as="geometry">
            <mxPoint x="1432" y="3624.5" as="sourcePoint" />
            <mxPoint x="1216" y="3422" as="targetPoint" />
          </mxGeometry>
        </mxCell>
        <mxCell id="PAuHiyZ5nTzHcIfETweL-74" value="" style="endArrow=classic;html=1;rounded=0;fontSize=16;exitX=1;exitY=0.5;exitDx=0;exitDy=0;entryX=0;entryY=0.5;entryDx=0;entryDy=0;" edge="1" parent="1" source="PAuHiyZ5nTzHcIfETweL-3" target="PAuHiyZ5nTzHcIfETweL-17">
          <mxGeometry width="50" height="50" relative="1" as="geometry">
            <mxPoint x="1442" y="3634.5" as="sourcePoint" />
            <mxPoint x="1527" y="3634.5" as="targetPoint" />
          </mxGeometry>
        </mxCell>
        <mxCell id="PAuHiyZ5nTzHcIfETweL-75" value="" style="endArrow=classic;html=1;rounded=0;fontSize=16;exitX=1;exitY=0.5;exitDx=0;exitDy=0;entryX=0;entryY=0.5;entryDx=0;entryDy=0;" edge="1" parent="1" source="PAuHiyZ5nTzHcIfETweL-3" target="PAuHiyZ5nTzHcIfETweL-19">
          <mxGeometry width="50" height="50" relative="1" as="geometry">
            <mxPoint x="1452" y="3644.5" as="sourcePoint" />
            <mxPoint x="1537" y="3644.5" as="targetPoint" />
          </mxGeometry>
        </mxCell>
        <mxCell id="PAuHiyZ5nTzHcIfETweL-76" value="" style="endArrow=classic;html=1;rounded=0;fontSize=16;exitX=1;exitY=0.5;exitDx=0;exitDy=0;entryX=0;entryY=0.5;entryDx=0;entryDy=0;" edge="1" parent="1" source="PAuHiyZ5nTzHcIfETweL-3" target="PAuHiyZ5nTzHcIfETweL-21">
          <mxGeometry width="50" height="50" relative="1" as="geometry">
            <mxPoint x="1462" y="3654.5" as="sourcePoint" />
            <mxPoint x="1547" y="3654.5" as="targetPoint" />
          </mxGeometry>
        </mxCell>
        <mxCell id="PAuHiyZ5nTzHcIfETweL-77" value="" style="endArrow=classic;html=1;rounded=0;fontSize=16;exitX=1;exitY=0.5;exitDx=0;exitDy=0;entryX=0;entryY=0.5;entryDx=0;entryDy=0;" edge="1" parent="1" source="PAuHiyZ5nTzHcIfETweL-4" target="PAuHiyZ5nTzHcIfETweL-14">
          <mxGeometry width="50" height="50" relative="1" as="geometry">
            <mxPoint x="1472" y="3664.5" as="sourcePoint" />
            <mxPoint x="1557" y="3664.5" as="targetPoint" />
          </mxGeometry>
        </mxCell>
        <mxCell id="PAuHiyZ5nTzHcIfETweL-78" value="" style="endArrow=classic;html=1;rounded=0;fontSize=16;exitX=1;exitY=0.5;exitDx=0;exitDy=0;entryX=0;entryY=0.5;entryDx=0;entryDy=0;" edge="1" parent="1" source="PAuHiyZ5nTzHcIfETweL-4" target="PAuHiyZ5nTzHcIfETweL-16">
          <mxGeometry width="50" height="50" relative="1" as="geometry">
            <mxPoint x="1482" y="3674.5" as="sourcePoint" />
            <mxPoint x="1567" y="3674.5" as="targetPoint" />
          </mxGeometry>
        </mxCell>
        <mxCell id="PAuHiyZ5nTzHcIfETweL-79" value="" style="endArrow=classic;html=1;rounded=0;fontSize=16;exitX=1;exitY=0.5;exitDx=0;exitDy=0;entryX=0;entryY=0.5;entryDx=0;entryDy=0;" edge="1" parent="1" source="PAuHiyZ5nTzHcIfETweL-4" target="PAuHiyZ5nTzHcIfETweL-18">
          <mxGeometry width="50" height="50" relative="1" as="geometry">
            <mxPoint x="1492" y="3684.5" as="sourcePoint" />
            <mxPoint x="1577" y="3684.5" as="targetPoint" />
          </mxGeometry>
        </mxCell>
        <mxCell id="PAuHiyZ5nTzHcIfETweL-80" value="" style="endArrow=classic;html=1;rounded=0;fontSize=16;exitX=1;exitY=0.5;exitDx=0;exitDy=0;" edge="1" parent="1" source="PAuHiyZ5nTzHcIfETweL-4">
          <mxGeometry width="50" height="50" relative="1" as="geometry">
            <mxPoint x="1502" y="3694.5" as="sourcePoint" />
            <mxPoint x="1216" y="3717" as="targetPoint" />
          </mxGeometry>
        </mxCell>
        <mxCell id="PAuHiyZ5nTzHcIfETweL-81" value="" style="endArrow=classic;html=1;rounded=0;fontSize=16;exitX=1;exitY=0.5;exitDx=0;exitDy=0;entryX=0;entryY=0.5;entryDx=0;entryDy=0;" edge="1" parent="1" source="PAuHiyZ5nTzHcIfETweL-4" target="PAuHiyZ5nTzHcIfETweL-24">
          <mxGeometry width="50" height="50" relative="1" as="geometry">
            <mxPoint x="1512" y="3704.5" as="sourcePoint" />
            <mxPoint x="1597" y="3704.5" as="targetPoint" />
          </mxGeometry>
        </mxCell>
        <mxCell id="PAuHiyZ5nTzHcIfETweL-82" value="" style="endArrow=classic;html=1;rounded=0;fontSize=16;exitX=1;exitY=0.5;exitDx=0;exitDy=0;entryX=0;entryY=0.5;entryDx=0;entryDy=0;" edge="1" parent="1" source="PAuHiyZ5nTzHcIfETweL-5" target="PAuHiyZ5nTzHcIfETweL-22">
          <mxGeometry width="50" height="50" relative="1" as="geometry">
            <mxPoint x="1522" y="3714.5" as="sourcePoint" />
            <mxPoint x="1607" y="3714.5" as="targetPoint" />
          </mxGeometry>
        </mxCell>
        <mxCell id="PAuHiyZ5nTzHcIfETweL-83" value="" style="endArrow=classic;html=1;rounded=0;fontSize=16;exitX=1;exitY=0.5;exitDx=0;exitDy=0;entryX=0;entryY=0.5;entryDx=0;entryDy=0;" edge="1" parent="1" source="PAuHiyZ5nTzHcIfETweL-5" target="PAuHiyZ5nTzHcIfETweL-15">
          <mxGeometry width="50" height="50" relative="1" as="geometry">
            <mxPoint x="1532" y="3724.5" as="sourcePoint" />
            <mxPoint x="1617" y="3724.5" as="targetPoint" />
          </mxGeometry>
        </mxCell>
        <mxCell id="PAuHiyZ5nTzHcIfETweL-84" value="" style="endArrow=classic;html=1;rounded=0;fontSize=16;entryX=0;entryY=0.5;entryDx=0;entryDy=0;" edge="1" parent="1" target="PAuHiyZ5nTzHcIfETweL-18">
          <mxGeometry width="50" height="50" relative="1" as="geometry">
            <mxPoint x="1130" y="3576" as="sourcePoint" />
            <mxPoint x="1627" y="3734.5" as="targetPoint" />
          </mxGeometry>
        </mxCell>
        <mxCell id="PAuHiyZ5nTzHcIfETweL-85" value="" style="endArrow=classic;html=1;rounded=0;fontSize=16;entryX=0;entryY=0.5;entryDx=0;entryDy=0;" edge="1" parent="1" target="PAuHiyZ5nTzHcIfETweL-20">
          <mxGeometry width="50" height="50" relative="1" as="geometry">
            <mxPoint x="1130" y="3580" as="sourcePoint" />
            <mxPoint x="1637" y="3744.5" as="targetPoint" />
          </mxGeometry>
        </mxCell>
        <mxCell id="PAuHiyZ5nTzHcIfETweL-86" value="" style="endArrow=classic;html=1;rounded=0;fontSize=16;entryX=0;entryY=0.5;entryDx=0;entryDy=0;" edge="1" parent="1" target="PAuHiyZ5nTzHcIfETweL-21">
          <mxGeometry width="50" height="50" relative="1" as="geometry">
            <mxPoint x="1131" y="3576" as="sourcePoint" />
            <mxPoint x="1647" y="3754.5" as="targetPoint" />
          </mxGeometry>
        </mxCell>
        <mxCell id="PAuHiyZ5nTzHcIfETweL-87" value="" style="endArrow=classic;html=1;rounded=0;fontSize=16;exitX=1;exitY=0.5;exitDx=0;exitDy=0;" edge="1" parent="1" source="PAuHiyZ5nTzHcIfETweL-6">
          <mxGeometry width="50" height="50" relative="1" as="geometry">
            <mxPoint x="1572" y="3764.5" as="sourcePoint" />
            <mxPoint x="1216" y="3424" as="targetPoint" />
          </mxGeometry>
        </mxCell>
        <mxCell id="PAuHiyZ5nTzHcIfETweL-88" value="" style="endArrow=classic;html=1;rounded=0;fontSize=16;exitX=1;exitY=0.5;exitDx=0;exitDy=0;" edge="1" parent="1" source="PAuHiyZ5nTzHcIfETweL-6">
          <mxGeometry width="50" height="50" relative="1" as="geometry">
            <mxPoint x="1582" y="3774.5" as="sourcePoint" />
            <mxPoint x="1217" y="3524" as="targetPoint" />
          </mxGeometry>
        </mxCell>
        <mxCell id="PAuHiyZ5nTzHcIfETweL-89" value="" style="endArrow=classic;html=1;rounded=0;fontSize=16;entryX=0;entryY=0.5;entryDx=0;entryDy=0;" edge="1" parent="1" target="PAuHiyZ5nTzHcIfETweL-18">
          <mxGeometry width="50" height="50" relative="1" as="geometry">
            <mxPoint x="1134" y="3624" as="sourcePoint" />
            <mxPoint x="1677" y="3784.5" as="targetPoint" />
          </mxGeometry>
        </mxCell>
        <mxCell id="PAuHiyZ5nTzHcIfETweL-90" value="" style="endArrow=classic;html=1;rounded=0;fontSize=16;entryX=0;entryY=0.5;entryDx=0;entryDy=0;" edge="1" parent="1" target="PAuHiyZ5nTzHcIfETweL-20">
          <mxGeometry width="50" height="50" relative="1" as="geometry">
            <mxPoint x="1129" y="3624" as="sourcePoint" />
            <mxPoint x="1687" y="3794.5" as="targetPoint" />
          </mxGeometry>
        </mxCell>
        <mxCell id="PAuHiyZ5nTzHcIfETweL-91" value="" style="endArrow=classic;html=1;rounded=0;fontSize=16;exitX=1;exitY=0.5;exitDx=0;exitDy=0;" edge="1" parent="1" source="PAuHiyZ5nTzHcIfETweL-7">
          <mxGeometry width="50" height="50" relative="1" as="geometry">
            <mxPoint x="1612" y="3804.5" as="sourcePoint" />
            <mxPoint x="1214" y="3523" as="targetPoint" />
          </mxGeometry>
        </mxCell>
        <mxCell id="PAuHiyZ5nTzHcIfETweL-92" value="" style="endArrow=classic;html=1;rounded=0;fontSize=16;exitX=1;exitY=0.5;exitDx=0;exitDy=0;entryX=0;entryY=0.5;entryDx=0;entryDy=0;" edge="1" parent="1" source="PAuHiyZ5nTzHcIfETweL-7" target="PAuHiyZ5nTzHcIfETweL-18">
          <mxGeometry width="50" height="50" relative="1" as="geometry">
            <mxPoint x="1622" y="3814.5" as="sourcePoint" />
            <mxPoint x="1707" y="3814.5" as="targetPoint" />
          </mxGeometry>
        </mxCell>
        <mxCell id="PAuHiyZ5nTzHcIfETweL-93" value="" style="endArrow=classic;html=1;rounded=0;fontSize=16;exitX=1;exitY=0.5;exitDx=0;exitDy=0;entryX=0;entryY=0.5;entryDx=0;entryDy=0;" edge="1" parent="1" source="PAuHiyZ5nTzHcIfETweL-7" target="PAuHiyZ5nTzHcIfETweL-20">
          <mxGeometry width="50" height="50" relative="1" as="geometry">
            <mxPoint x="1632" y="3824.5" as="sourcePoint" />
            <mxPoint x="1717" y="3824.5" as="targetPoint" />
          </mxGeometry>
        </mxCell>
        <mxCell id="PAuHiyZ5nTzHcIfETweL-94" value="" style="endArrow=classic;html=1;rounded=0;fontSize=16;" edge="1" parent="1">
          <mxGeometry width="50" height="50" relative="1" as="geometry">
            <mxPoint x="1131" y="3672" as="sourcePoint" />
            <mxPoint x="1218" y="3815" as="targetPoint" />
          </mxGeometry>
        </mxCell>
        <mxCell id="PAuHiyZ5nTzHcIfETweL-95" value="" style="endArrow=classic;html=1;rounded=0;fontSize=16;exitX=1;exitY=0.5;exitDx=0;exitDy=0;entryX=0;entryY=0.5;entryDx=0;entryDy=0;" edge="1" parent="1" source="PAuHiyZ5nTzHcIfETweL-8" target="PAuHiyZ5nTzHcIfETweL-17">
          <mxGeometry width="50" height="50" relative="1" as="geometry">
            <mxPoint x="1652" y="3844.5" as="sourcePoint" />
            <mxPoint x="1737" y="3844.5" as="targetPoint" />
          </mxGeometry>
        </mxCell>
        <mxCell id="PAuHiyZ5nTzHcIfETweL-96" value="" style="endArrow=classic;html=1;rounded=0;fontSize=16;exitX=1;exitY=0.5;exitDx=0;exitDy=0;entryX=0;entryY=0.5;entryDx=0;entryDy=0;" edge="1" parent="1" source="PAuHiyZ5nTzHcIfETweL-8" target="PAuHiyZ5nTzHcIfETweL-19">
          <mxGeometry width="50" height="50" relative="1" as="geometry">
            <mxPoint x="1662" y="3854.5" as="sourcePoint" />
            <mxPoint x="1747" y="3854.5" as="targetPoint" />
          </mxGeometry>
        </mxCell>
        <mxCell id="PAuHiyZ5nTzHcIfETweL-97" value="" style="endArrow=classic;html=1;rounded=0;fontSize=16;exitX=1;exitY=0.5;exitDx=0;exitDy=0;entryX=0;entryY=0.5;entryDx=0;entryDy=0;" edge="1" parent="1" source="PAuHiyZ5nTzHcIfETweL-8" target="PAuHiyZ5nTzHcIfETweL-24">
          <mxGeometry width="50" height="50" relative="1" as="geometry">
            <mxPoint x="1672" y="3864.5" as="sourcePoint" />
            <mxPoint x="1757" y="3864.5" as="targetPoint" />
          </mxGeometry>
        </mxCell>
        <mxCell id="PAuHiyZ5nTzHcIfETweL-98" value="" style="endArrow=classic;html=1;rounded=0;fontSize=16;exitX=1;exitY=0.5;exitDx=0;exitDy=0;" edge="1" parent="1" source="PAuHiyZ5nTzHcIfETweL-11">
          <mxGeometry width="50" height="50" relative="1" as="geometry">
            <mxPoint x="1682" y="3874.5" as="sourcePoint" />
            <mxPoint x="1216" y="3723" as="targetPoint" />
          </mxGeometry>
        </mxCell>
        <mxCell id="PAuHiyZ5nTzHcIfETweL-99" value="" style="endArrow=classic;html=1;rounded=0;fontSize=16;exitX=1;exitY=0.5;exitDx=0;exitDy=0;entryX=0;entryY=0.5;entryDx=0;entryDy=0;" edge="1" parent="1" source="PAuHiyZ5nTzHcIfETweL-11" target="PAuHiyZ5nTzHcIfETweL-24">
          <mxGeometry width="50" height="50" relative="1" as="geometry">
            <mxPoint x="1692" y="3884.5" as="sourcePoint" />
            <mxPoint x="1777" y="3884.5" as="targetPoint" />
          </mxGeometry>
        </mxCell>
        <mxCell id="PAuHiyZ5nTzHcIfETweL-100" value="" style="endArrow=classic;html=1;rounded=0;fontSize=16;exitX=1;exitY=0.5;exitDx=0;exitDy=0;entryX=0;entryY=0.5;entryDx=0;entryDy=0;" edge="1" parent="1" source="PAuHiyZ5nTzHcIfETweL-22" target="PAuHiyZ5nTzHcIfETweL-25">
          <mxGeometry width="50" height="50" relative="1" as="geometry">
            <mxPoint x="1527" y="3740" as="sourcePoint" />
            <mxPoint x="1588" y="3696" as="targetPoint" />
          </mxGeometry>
        </mxCell>
        <mxCell id="PAuHiyZ5nTzHcIfETweL-101" value="" style="endArrow=classic;html=1;rounded=0;fontSize=16;exitX=1;exitY=0.5;exitDx=0;exitDy=0;entryX=0;entryY=0.5;entryDx=0;entryDy=0;" edge="1" parent="1" source="PAuHiyZ5nTzHcIfETweL-22" target="PAuHiyZ5nTzHcIfETweL-27">
          <mxGeometry width="50" height="50" relative="1" as="geometry">
            <mxPoint x="1537" y="3750" as="sourcePoint" />
            <mxPoint x="1598" y="3706" as="targetPoint" />
          </mxGeometry>
        </mxCell>
        <mxCell id="PAuHiyZ5nTzHcIfETweL-102" value="" style="endArrow=classic;html=1;rounded=0;fontSize=16;exitX=1;exitY=0.5;exitDx=0;exitDy=0;entryX=0;entryY=0.5;entryDx=0;entryDy=0;" edge="1" parent="1" source="PAuHiyZ5nTzHcIfETweL-22" target="PAuHiyZ5nTzHcIfETweL-29">
          <mxGeometry width="50" height="50" relative="1" as="geometry">
            <mxPoint x="1547" y="3760" as="sourcePoint" />
            <mxPoint x="1608" y="3716" as="targetPoint" />
          </mxGeometry>
        </mxCell>
        <mxCell id="PAuHiyZ5nTzHcIfETweL-103" value="" style="endArrow=classic;html=1;rounded=0;fontSize=16;exitX=1;exitY=0.5;exitDx=0;exitDy=0;entryX=0;entryY=0.5;entryDx=0;entryDy=0;" edge="1" parent="1" source="PAuHiyZ5nTzHcIfETweL-22" target="PAuHiyZ5nTzHcIfETweL-31">
          <mxGeometry width="50" height="50" relative="1" as="geometry">
            <mxPoint x="1557" y="3770" as="sourcePoint" />
            <mxPoint x="1618" y="3726" as="targetPoint" />
          </mxGeometry>
        </mxCell>
        <mxCell id="PAuHiyZ5nTzHcIfETweL-104" value="" style="endArrow=classic;html=1;rounded=0;fontSize=16;exitX=1;exitY=0.5;exitDx=0;exitDy=0;entryX=0;entryY=0.5;entryDx=0;entryDy=0;" edge="1" parent="1" source="PAuHiyZ5nTzHcIfETweL-22" target="PAuHiyZ5nTzHcIfETweL-33">
          <mxGeometry width="50" height="50" relative="1" as="geometry">
            <mxPoint x="1567" y="3780" as="sourcePoint" />
            <mxPoint x="1628" y="3736" as="targetPoint" />
          </mxGeometry>
        </mxCell>
        <mxCell id="PAuHiyZ5nTzHcIfETweL-105" value="" style="endArrow=classic;html=1;rounded=0;fontSize=16;exitX=1;exitY=0.5;exitDx=0;exitDy=0;entryX=0;entryY=0.5;entryDx=0;entryDy=0;" edge="1" parent="1" source="PAuHiyZ5nTzHcIfETweL-22" target="PAuHiyZ5nTzHcIfETweL-34">
          <mxGeometry width="50" height="50" relative="1" as="geometry">
            <mxPoint x="1577" y="3790" as="sourcePoint" />
            <mxPoint x="1638" y="3746" as="targetPoint" />
          </mxGeometry>
        </mxCell>
        <mxCell id="PAuHiyZ5nTzHcIfETweL-106" value="" style="endArrow=classic;html=1;rounded=0;fontSize=16;exitX=1;exitY=0.5;exitDx=0;exitDy=0;entryX=0;entryY=0.5;entryDx=0;entryDy=0;" edge="1" parent="1" source="PAuHiyZ5nTzHcIfETweL-13" target="PAuHiyZ5nTzHcIfETweL-25">
          <mxGeometry width="50" height="50" relative="1" as="geometry">
            <mxPoint x="1587" y="3800" as="sourcePoint" />
            <mxPoint x="1648" y="3756" as="targetPoint" />
          </mxGeometry>
        </mxCell>
        <mxCell id="PAuHiyZ5nTzHcIfETweL-107" value="" style="endArrow=classic;html=1;rounded=0;fontSize=16;exitX=1;exitY=0.5;exitDx=0;exitDy=0;entryX=0;entryY=0.5;entryDx=0;entryDy=0;" edge="1" parent="1" source="PAuHiyZ5nTzHcIfETweL-13" target="PAuHiyZ5nTzHcIfETweL-26">
          <mxGeometry width="50" height="50" relative="1" as="geometry">
            <mxPoint x="1597" y="3810" as="sourcePoint" />
            <mxPoint x="1658" y="3766" as="targetPoint" />
          </mxGeometry>
        </mxCell>
        <mxCell id="PAuHiyZ5nTzHcIfETweL-108" value="" style="endArrow=classic;html=1;rounded=0;fontSize=16;exitX=1;exitY=0.5;exitDx=0;exitDy=0;" edge="1" parent="1" source="PAuHiyZ5nTzHcIfETweL-13">
          <mxGeometry width="50" height="50" relative="1" as="geometry">
            <mxPoint x="1607" y="3820" as="sourcePoint" />
            <mxPoint x="1336" y="3514" as="targetPoint" />
          </mxGeometry>
        </mxCell>
        <mxCell id="PAuHiyZ5nTzHcIfETweL-109" value="" style="endArrow=classic;html=1;rounded=0;fontSize=16;exitX=1;exitY=0.5;exitDx=0;exitDy=0;entryX=0;entryY=0.5;entryDx=0;entryDy=0;" edge="1" parent="1" source="PAuHiyZ5nTzHcIfETweL-13" target="PAuHiyZ5nTzHcIfETweL-30">
          <mxGeometry width="50" height="50" relative="1" as="geometry">
            <mxPoint x="1617" y="3830" as="sourcePoint" />
            <mxPoint x="1678" y="3786" as="targetPoint" />
          </mxGeometry>
        </mxCell>
        <mxCell id="PAuHiyZ5nTzHcIfETweL-110" value="" style="endArrow=classic;html=1;rounded=0;fontSize=16;exitX=1;exitY=0.5;exitDx=0;exitDy=0;entryX=0;entryY=0.5;entryDx=0;entryDy=0;" edge="1" parent="1" source="PAuHiyZ5nTzHcIfETweL-13" target="PAuHiyZ5nTzHcIfETweL-32">
          <mxGeometry width="50" height="50" relative="1" as="geometry">
            <mxPoint x="1627" y="3840" as="sourcePoint" />
            <mxPoint x="1688" y="3796" as="targetPoint" />
          </mxGeometry>
        </mxCell>
        <mxCell id="PAuHiyZ5nTzHcIfETweL-111" value="" style="endArrow=classic;html=1;rounded=0;fontSize=16;exitX=1;exitY=0.5;exitDx=0;exitDy=0;entryX=0;entryY=0.5;entryDx=0;entryDy=0;" edge="1" parent="1" source="PAuHiyZ5nTzHcIfETweL-13" target="PAuHiyZ5nTzHcIfETweL-35">
          <mxGeometry width="50" height="50" relative="1" as="geometry">
            <mxPoint x="1637" y="3850" as="sourcePoint" />
            <mxPoint x="1698" y="3806" as="targetPoint" />
          </mxGeometry>
        </mxCell>
        <mxCell id="PAuHiyZ5nTzHcIfETweL-112" value="" style="endArrow=classic;html=1;rounded=0;fontSize=16;exitX=1;exitY=0.5;exitDx=0;exitDy=0;entryX=0;entryY=0.5;entryDx=0;entryDy=0;" edge="1" parent="1" source="PAuHiyZ5nTzHcIfETweL-14" target="PAuHiyZ5nTzHcIfETweL-34">
          <mxGeometry width="50" height="50" relative="1" as="geometry">
            <mxPoint x="1647" y="3860" as="sourcePoint" />
            <mxPoint x="1708" y="3816" as="targetPoint" />
          </mxGeometry>
        </mxCell>
        <mxCell id="PAuHiyZ5nTzHcIfETweL-113" value="" style="endArrow=classic;html=1;rounded=0;fontSize=16;exitX=1;exitY=0.5;exitDx=0;exitDy=0;entryX=0;entryY=0.5;entryDx=0;entryDy=0;" edge="1" parent="1" source="PAuHiyZ5nTzHcIfETweL-14" target="PAuHiyZ5nTzHcIfETweL-27">
          <mxGeometry width="50" height="50" relative="1" as="geometry">
            <mxPoint x="1657" y="3870" as="sourcePoint" />
            <mxPoint x="1718" y="3826" as="targetPoint" />
          </mxGeometry>
        </mxCell>
        <mxCell id="PAuHiyZ5nTzHcIfETweL-114" value="" style="endArrow=classic;html=1;rounded=0;fontSize=16;exitX=1;exitY=0.5;exitDx=0;exitDy=0;entryX=0;entryY=0.5;entryDx=0;entryDy=0;" edge="1" parent="1" source="PAuHiyZ5nTzHcIfETweL-14" target="PAuHiyZ5nTzHcIfETweL-29">
          <mxGeometry width="50" height="50" relative="1" as="geometry">
            <mxPoint x="1667" y="3880" as="sourcePoint" />
            <mxPoint x="1728" y="3836" as="targetPoint" />
          </mxGeometry>
        </mxCell>
        <mxCell id="PAuHiyZ5nTzHcIfETweL-115" value="" style="endArrow=classic;html=1;rounded=0;fontSize=16;exitX=1;exitY=0.5;exitDx=0;exitDy=0;entryX=0;entryY=0.5;entryDx=0;entryDy=0;" edge="1" parent="1" source="PAuHiyZ5nTzHcIfETweL-14" target="PAuHiyZ5nTzHcIfETweL-31">
          <mxGeometry width="50" height="50" relative="1" as="geometry">
            <mxPoint x="1677" y="3890" as="sourcePoint" />
            <mxPoint x="1738" y="3846" as="targetPoint" />
          </mxGeometry>
        </mxCell>
        <mxCell id="PAuHiyZ5nTzHcIfETweL-116" value="" style="endArrow=classic;html=1;rounded=0;fontSize=16;exitX=1;exitY=0.5;exitDx=0;exitDy=0;entryX=0;entryY=0.5;entryDx=0;entryDy=0;" edge="1" parent="1" source="PAuHiyZ5nTzHcIfETweL-14" target="PAuHiyZ5nTzHcIfETweL-33">
          <mxGeometry width="50" height="50" relative="1" as="geometry">
            <mxPoint x="1687" y="3900" as="sourcePoint" />
            <mxPoint x="1748" y="3856" as="targetPoint" />
          </mxGeometry>
        </mxCell>
        <mxCell id="PAuHiyZ5nTzHcIfETweL-117" value="" style="endArrow=classic;html=1;rounded=0;fontSize=16;exitX=1;exitY=0.5;exitDx=0;exitDy=0;" edge="1" parent="1" source="PAuHiyZ5nTzHcIfETweL-15">
          <mxGeometry width="50" height="50" relative="1" as="geometry">
            <mxPoint x="1697" y="3910" as="sourcePoint" />
            <mxPoint x="1336" y="3416" as="targetPoint" />
          </mxGeometry>
        </mxCell>
        <mxCell id="PAuHiyZ5nTzHcIfETweL-118" value="" style="endArrow=classic;html=1;rounded=0;fontSize=16;exitX=1;exitY=0.5;exitDx=0;exitDy=0;entryX=0;entryY=0.5;entryDx=0;entryDy=0;" edge="1" parent="1" source="PAuHiyZ5nTzHcIfETweL-15" target="PAuHiyZ5nTzHcIfETweL-29">
          <mxGeometry width="50" height="50" relative="1" as="geometry">
            <mxPoint x="1707" y="3920" as="sourcePoint" />
            <mxPoint x="1768" y="3876" as="targetPoint" />
          </mxGeometry>
        </mxCell>
        <mxCell id="PAuHiyZ5nTzHcIfETweL-119" value="" style="endArrow=classic;html=1;rounded=0;fontSize=16;exitX=1;exitY=0.5;exitDx=0;exitDy=0;entryX=0;entryY=0.5;entryDx=0;entryDy=0;" edge="1" parent="1" source="PAuHiyZ5nTzHcIfETweL-15" target="PAuHiyZ5nTzHcIfETweL-31">
          <mxGeometry width="50" height="50" relative="1" as="geometry">
            <mxPoint x="1717" y="3930" as="sourcePoint" />
            <mxPoint x="1778" y="3886" as="targetPoint" />
          </mxGeometry>
        </mxCell>
        <mxCell id="PAuHiyZ5nTzHcIfETweL-120" value="" style="endArrow=classic;html=1;rounded=0;fontSize=16;exitX=1;exitY=0.5;exitDx=0;exitDy=0;" edge="1" parent="1" source="PAuHiyZ5nTzHcIfETweL-15">
          <mxGeometry width="50" height="50" relative="1" as="geometry">
            <mxPoint x="1727" y="3940" as="sourcePoint" />
            <mxPoint x="1338" y="3811" as="targetPoint" />
          </mxGeometry>
        </mxCell>
        <mxCell id="PAuHiyZ5nTzHcIfETweL-121" value="" style="endArrow=classic;html=1;rounded=0;fontSize=16;exitX=1;exitY=0.5;exitDx=0;exitDy=0;entryX=0;entryY=0.5;entryDx=0;entryDy=0;" edge="1" parent="1" source="PAuHiyZ5nTzHcIfETweL-34" target="PAuHiyZ5nTzHcIfETweL-37">
          <mxGeometry width="50" height="50" relative="1" as="geometry">
            <mxPoint x="1413" y="3722" as="sourcePoint" />
            <mxPoint x="1474" y="3678" as="targetPoint" />
          </mxGeometry>
        </mxCell>
        <mxCell id="PAuHiyZ5nTzHcIfETweL-122" value="" style="endArrow=classic;html=1;rounded=0;fontSize=16;exitX=1;exitY=0.5;exitDx=0;exitDy=0;entryX=0;entryY=0.5;entryDx=0;entryDy=0;" edge="1" parent="1" source="PAuHiyZ5nTzHcIfETweL-16" target="PAuHiyZ5nTzHcIfETweL-34">
          <mxGeometry width="50" height="50" relative="1" as="geometry">
            <mxPoint x="1423" y="3732" as="sourcePoint" />
            <mxPoint x="1484" y="3688" as="targetPoint" />
          </mxGeometry>
        </mxCell>
        <mxCell id="PAuHiyZ5nTzHcIfETweL-123" value="" style="endArrow=classic;html=1;rounded=0;fontSize=16;exitX=1;exitY=0.5;exitDx=0;exitDy=0;entryX=0;entryY=0.5;entryDx=0;entryDy=0;" edge="1" parent="1" source="PAuHiyZ5nTzHcIfETweL-16" target="PAuHiyZ5nTzHcIfETweL-27">
          <mxGeometry width="50" height="50" relative="1" as="geometry">
            <mxPoint x="1433" y="3742" as="sourcePoint" />
            <mxPoint x="1494" y="3698" as="targetPoint" />
          </mxGeometry>
        </mxCell>
        <mxCell id="PAuHiyZ5nTzHcIfETweL-124" value="" style="endArrow=classic;html=1;rounded=0;fontSize=16;entryX=0;entryY=0.5;entryDx=0;entryDy=0;" edge="1" parent="1" target="PAuHiyZ5nTzHcIfETweL-29">
          <mxGeometry width="50" height="50" relative="1" as="geometry">
            <mxPoint x="1256" y="3524" as="sourcePoint" />
            <mxPoint x="1504" y="3708" as="targetPoint" />
          </mxGeometry>
        </mxCell>
        <mxCell id="PAuHiyZ5nTzHcIfETweL-125" value="" style="endArrow=classic;html=1;rounded=0;fontSize=16;entryX=0;entryY=0.5;entryDx=0;entryDy=0;exitX=1;exitY=0.5;exitDx=0;exitDy=0;" edge="1" parent="1" source="PAuHiyZ5nTzHcIfETweL-16" target="PAuHiyZ5nTzHcIfETweL-32">
          <mxGeometry width="50" height="50" relative="1" as="geometry">
            <mxPoint x="1273" y="3535" as="sourcePoint" />
            <mxPoint x="1532" y="3730" as="targetPoint" />
          </mxGeometry>
        </mxCell>
        <mxCell id="PAuHiyZ5nTzHcIfETweL-126" value="" style="endArrow=classic;html=1;rounded=0;fontSize=16;entryX=0;entryY=0.5;entryDx=0;entryDy=0;" edge="1" parent="1" target="PAuHiyZ5nTzHcIfETweL-35">
          <mxGeometry width="50" height="50" relative="1" as="geometry">
            <mxPoint x="1256" y="3524" as="sourcePoint" />
            <mxPoint x="1524" y="3728" as="targetPoint" />
          </mxGeometry>
        </mxCell>
        <mxCell id="PAuHiyZ5nTzHcIfETweL-127" value="" style="endArrow=classic;html=1;rounded=0;fontSize=16;exitX=1;exitY=0.5;exitDx=0;exitDy=0;entryX=0;entryY=0.5;entryDx=0;entryDy=0;" edge="1" parent="1" source="PAuHiyZ5nTzHcIfETweL-17" target="PAuHiyZ5nTzHcIfETweL-34">
          <mxGeometry width="50" height="50" relative="1" as="geometry">
            <mxPoint x="1473" y="3782" as="sourcePoint" />
            <mxPoint x="1534" y="3738" as="targetPoint" />
          </mxGeometry>
        </mxCell>
        <mxCell id="PAuHiyZ5nTzHcIfETweL-128" value="" style="endArrow=classic;html=1;rounded=0;fontSize=16;exitX=1;exitY=0.5;exitDx=0;exitDy=0;entryX=0;entryY=0.5;entryDx=0;entryDy=0;" edge="1" parent="1" source="PAuHiyZ5nTzHcIfETweL-17" target="PAuHiyZ5nTzHcIfETweL-26">
          <mxGeometry width="50" height="50" relative="1" as="geometry">
            <mxPoint x="1483" y="3792" as="sourcePoint" />
            <mxPoint x="1544" y="3748" as="targetPoint" />
          </mxGeometry>
        </mxCell>
        <mxCell id="PAuHiyZ5nTzHcIfETweL-129" value="" style="endArrow=classic;html=1;rounded=0;fontSize=16;exitX=1;exitY=0.5;exitDx=0;exitDy=0;entryX=0;entryY=0.5;entryDx=0;entryDy=0;" edge="1" parent="1" source="PAuHiyZ5nTzHcIfETweL-17" target="PAuHiyZ5nTzHcIfETweL-28">
          <mxGeometry width="50" height="50" relative="1" as="geometry">
            <mxPoint x="1493" y="3802" as="sourcePoint" />
            <mxPoint x="1554" y="3758" as="targetPoint" />
          </mxGeometry>
        </mxCell>
        <mxCell id="PAuHiyZ5nTzHcIfETweL-130" value="" style="endArrow=classic;html=1;rounded=0;fontSize=16;" edge="1" parent="1">
          <mxGeometry width="50" height="50" relative="1" as="geometry">
            <mxPoint x="1257" y="3573" as="sourcePoint" />
            <mxPoint x="1334" y="3619" as="targetPoint" />
          </mxGeometry>
        </mxCell>
        <mxCell id="PAuHiyZ5nTzHcIfETweL-131" value="" style="endArrow=classic;html=1;rounded=0;fontSize=16;exitX=1;exitY=0.5;exitDx=0;exitDy=0;entryX=0;entryY=0.5;entryDx=0;entryDy=0;" edge="1" parent="1" source="PAuHiyZ5nTzHcIfETweL-17" target="PAuHiyZ5nTzHcIfETweL-32">
          <mxGeometry width="50" height="50" relative="1" as="geometry">
            <mxPoint x="1513" y="3822" as="sourcePoint" />
            <mxPoint x="1574" y="3778" as="targetPoint" />
          </mxGeometry>
        </mxCell>
        <mxCell id="PAuHiyZ5nTzHcIfETweL-132" value="" style="endArrow=classic;html=1;rounded=0;fontSize=16;exitX=1;exitY=0.5;exitDx=0;exitDy=0;entryX=0;entryY=1;entryDx=0;entryDy=0;" edge="1" parent="1" source="PAuHiyZ5nTzHcIfETweL-17" target="PAuHiyZ5nTzHcIfETweL-33">
          <mxGeometry width="50" height="50" relative="1" as="geometry">
            <mxPoint x="1523" y="3832" as="sourcePoint" />
            <mxPoint x="1584" y="3788" as="targetPoint" />
          </mxGeometry>
        </mxCell>
        <mxCell id="PAuHiyZ5nTzHcIfETweL-133" value="" style="endArrow=classic;html=1;rounded=0;fontSize=16;exitX=1;exitY=0.5;exitDx=0;exitDy=0;entryX=0;entryY=0.5;entryDx=0;entryDy=0;" edge="1" parent="1" source="PAuHiyZ5nTzHcIfETweL-17" target="PAuHiyZ5nTzHcIfETweL-35">
          <mxGeometry width="50" height="50" relative="1" as="geometry">
            <mxPoint x="1533" y="3842" as="sourcePoint" />
            <mxPoint x="1594" y="3798" as="targetPoint" />
          </mxGeometry>
        </mxCell>
        <mxCell id="PAuHiyZ5nTzHcIfETweL-134" value="" style="endArrow=classic;html=1;rounded=0;fontSize=16;exitX=1;exitY=0.5;exitDx=0;exitDy=0;" edge="1" parent="1" source="PAuHiyZ5nTzHcIfETweL-18">
          <mxGeometry width="50" height="50" relative="1" as="geometry">
            <mxPoint x="1543" y="3852" as="sourcePoint" />
            <mxPoint x="1336" y="3321" as="targetPoint" />
          </mxGeometry>
        </mxCell>
        <mxCell id="PAuHiyZ5nTzHcIfETweL-135" value="" style="endArrow=classic;html=1;rounded=0;fontSize=16;exitX=1;exitY=0.5;exitDx=0;exitDy=0;entryX=0;entryY=0.5;entryDx=0;entryDy=0;" edge="1" parent="1" source="PAuHiyZ5nTzHcIfETweL-18" target="PAuHiyZ5nTzHcIfETweL-27">
          <mxGeometry width="50" height="50" relative="1" as="geometry">
            <mxPoint x="1553" y="3862" as="sourcePoint" />
            <mxPoint x="1614" y="3818" as="targetPoint" />
          </mxGeometry>
        </mxCell>
        <mxCell id="PAuHiyZ5nTzHcIfETweL-136" value="" style="endArrow=classic;html=1;rounded=0;fontSize=16;exitX=1;exitY=0.5;exitDx=0;exitDy=0;entryX=0;entryY=0.5;entryDx=0;entryDy=0;" edge="1" parent="1" source="PAuHiyZ5nTzHcIfETweL-18" target="PAuHiyZ5nTzHcIfETweL-30">
          <mxGeometry width="50" height="50" relative="1" as="geometry">
            <mxPoint x="1563" y="3872" as="sourcePoint" />
            <mxPoint x="1624" y="3828" as="targetPoint" />
          </mxGeometry>
        </mxCell>
        <mxCell id="PAuHiyZ5nTzHcIfETweL-137" value="" style="endArrow=classic;html=1;rounded=0;fontSize=16;exitX=1;exitY=0.5;exitDx=0;exitDy=0;entryX=0;entryY=0.5;entryDx=0;entryDy=0;" edge="1" parent="1" source="PAuHiyZ5nTzHcIfETweL-18" target="PAuHiyZ5nTzHcIfETweL-32">
          <mxGeometry width="50" height="50" relative="1" as="geometry">
            <mxPoint x="1573" y="3882" as="sourcePoint" />
            <mxPoint x="1634" y="3838" as="targetPoint" />
          </mxGeometry>
        </mxCell>
        <mxCell id="PAuHiyZ5nTzHcIfETweL-138" value="" style="endArrow=classic;html=1;rounded=0;fontSize=16;entryX=0;entryY=0.5;entryDx=0;entryDy=0;" edge="1" parent="1" target="PAuHiyZ5nTzHcIfETweL-35">
          <mxGeometry width="50" height="50" relative="1" as="geometry">
            <mxPoint x="1255" y="3624" as="sourcePoint" />
            <mxPoint x="1644" y="3848" as="targetPoint" />
          </mxGeometry>
        </mxCell>
        <mxCell id="PAuHiyZ5nTzHcIfETweL-139" value="" style="endArrow=classic;html=1;rounded=0;fontSize=16;exitX=1;exitY=0.5;exitDx=0;exitDy=0;entryX=0;entryY=0.5;entryDx=0;entryDy=0;" edge="1" parent="1" source="PAuHiyZ5nTzHcIfETweL-19" target="PAuHiyZ5nTzHcIfETweL-35">
          <mxGeometry width="50" height="50" relative="1" as="geometry">
            <mxPoint x="1423" y="3732" as="sourcePoint" />
            <mxPoint x="1484" y="3688" as="targetPoint" />
          </mxGeometry>
        </mxCell>
        <mxCell id="PAuHiyZ5nTzHcIfETweL-140" value="" style="endArrow=classic;html=1;rounded=0;fontSize=16;exitX=1;exitY=0.5;exitDx=0;exitDy=0;entryX=0;entryY=0.5;entryDx=0;entryDy=0;" edge="1" parent="1" source="PAuHiyZ5nTzHcIfETweL-19" target="PAuHiyZ5nTzHcIfETweL-32">
          <mxGeometry width="50" height="50" relative="1" as="geometry">
            <mxPoint x="1433" y="3742" as="sourcePoint" />
            <mxPoint x="1494" y="3698" as="targetPoint" />
          </mxGeometry>
        </mxCell>
        <mxCell id="PAuHiyZ5nTzHcIfETweL-141" value="" style="endArrow=classic;html=1;rounded=0;fontSize=16;exitX=1;exitY=0.5;exitDx=0;exitDy=0;entryX=0;entryY=0.5;entryDx=0;entryDy=0;" edge="1" parent="1" source="PAuHiyZ5nTzHcIfETweL-19" target="PAuHiyZ5nTzHcIfETweL-29">
          <mxGeometry width="50" height="50" relative="1" as="geometry">
            <mxPoint x="1443" y="3752" as="sourcePoint" />
            <mxPoint x="1504" y="3708" as="targetPoint" />
          </mxGeometry>
        </mxCell>
        <mxCell id="PAuHiyZ5nTzHcIfETweL-142" value="" style="endArrow=classic;html=1;rounded=0;fontSize=16;exitX=1;exitY=0.5;exitDx=0;exitDy=0;" edge="1" parent="1" source="PAuHiyZ5nTzHcIfETweL-19">
          <mxGeometry width="50" height="50" relative="1" as="geometry">
            <mxPoint x="1453" y="3762" as="sourcePoint" />
            <mxPoint x="1336" y="3420" as="targetPoint" />
          </mxGeometry>
        </mxCell>
        <mxCell id="PAuHiyZ5nTzHcIfETweL-143" value="" style="endArrow=classic;html=1;rounded=0;fontSize=16;exitX=1;exitY=0.5;exitDx=0;exitDy=0;entryX=0;entryY=0.5;entryDx=0;entryDy=0;" edge="1" parent="1" source="PAuHiyZ5nTzHcIfETweL-20" target="PAuHiyZ5nTzHcIfETweL-35">
          <mxGeometry width="50" height="50" relative="1" as="geometry">
            <mxPoint x="1463" y="3772" as="sourcePoint" />
            <mxPoint x="1524" y="3728" as="targetPoint" />
          </mxGeometry>
        </mxCell>
        <mxCell id="PAuHiyZ5nTzHcIfETweL-144" value="" style="endArrow=classic;html=1;rounded=0;fontSize=16;exitX=1;exitY=0.5;exitDx=0;exitDy=0;entryX=0;entryY=0.5;entryDx=0;entryDy=0;" edge="1" parent="1" source="PAuHiyZ5nTzHcIfETweL-20" target="PAuHiyZ5nTzHcIfETweL-33">
          <mxGeometry width="50" height="50" relative="1" as="geometry">
            <mxPoint x="1473" y="3782" as="sourcePoint" />
            <mxPoint x="1534" y="3738" as="targetPoint" />
          </mxGeometry>
        </mxCell>
        <mxCell id="PAuHiyZ5nTzHcIfETweL-145" value="" style="endArrow=classic;html=1;rounded=0;fontSize=16;exitX=1;exitY=0.5;exitDx=0;exitDy=0;entryX=0;entryY=0.5;entryDx=0;entryDy=0;" edge="1" parent="1" source="PAuHiyZ5nTzHcIfETweL-20" target="PAuHiyZ5nTzHcIfETweL-30">
          <mxGeometry width="50" height="50" relative="1" as="geometry">
            <mxPoint x="1483" y="3792" as="sourcePoint" />
            <mxPoint x="1544" y="3748" as="targetPoint" />
          </mxGeometry>
        </mxCell>
        <mxCell id="PAuHiyZ5nTzHcIfETweL-146" value="" style="endArrow=classic;html=1;rounded=0;fontSize=16;exitX=1;exitY=0.5;exitDx=0;exitDy=0;entryX=0;entryY=0.5;entryDx=0;entryDy=0;" edge="1" parent="1" source="PAuHiyZ5nTzHcIfETweL-21" target="PAuHiyZ5nTzHcIfETweL-35">
          <mxGeometry width="50" height="50" relative="1" as="geometry">
            <mxPoint x="1493" y="3802" as="sourcePoint" />
            <mxPoint x="1554" y="3758" as="targetPoint" />
          </mxGeometry>
        </mxCell>
        <mxCell id="PAuHiyZ5nTzHcIfETweL-147" value="" style="endArrow=classic;html=1;rounded=0;fontSize=16;exitX=1;exitY=0.5;exitDx=0;exitDy=0;entryX=0;entryY=0.5;entryDx=0;entryDy=0;" edge="1" parent="1" source="PAuHiyZ5nTzHcIfETweL-21" target="PAuHiyZ5nTzHcIfETweL-32">
          <mxGeometry width="50" height="50" relative="1" as="geometry">
            <mxPoint x="1503" y="3812" as="sourcePoint" />
            <mxPoint x="1564" y="3768" as="targetPoint" />
          </mxGeometry>
        </mxCell>
        <mxCell id="PAuHiyZ5nTzHcIfETweL-148" value="" style="endArrow=classic;html=1;rounded=0;fontSize=16;exitX=1;exitY=0.5;exitDx=0;exitDy=0;entryX=0;entryY=0.5;entryDx=0;entryDy=0;" edge="1" parent="1" source="PAuHiyZ5nTzHcIfETweL-21" target="PAuHiyZ5nTzHcIfETweL-29">
          <mxGeometry width="50" height="50" relative="1" as="geometry">
            <mxPoint x="1513" y="3822" as="sourcePoint" />
            <mxPoint x="1574" y="3778" as="targetPoint" />
          </mxGeometry>
        </mxCell>
        <mxCell id="PAuHiyZ5nTzHcIfETweL-149" value="" style="endArrow=classic;html=1;rounded=0;fontSize=16;exitX=1;exitY=0.5;exitDx=0;exitDy=0;entryX=0;entryY=0.5;entryDx=0;entryDy=0;" edge="1" parent="1" source="PAuHiyZ5nTzHcIfETweL-24" target="PAuHiyZ5nTzHcIfETweL-35">
          <mxGeometry width="50" height="50" relative="1" as="geometry">
            <mxPoint x="1523" y="3832" as="sourcePoint" />
            <mxPoint x="1584" y="3788" as="targetPoint" />
          </mxGeometry>
        </mxCell>
        <mxCell id="PAuHiyZ5nTzHcIfETweL-150" value="" style="endArrow=classic;html=1;rounded=0;fontSize=16;exitX=1;exitY=0.5;exitDx=0;exitDy=0;" edge="1" parent="1" source="PAuHiyZ5nTzHcIfETweL-24">
          <mxGeometry width="50" height="50" relative="1" as="geometry">
            <mxPoint x="1533" y="3842" as="sourcePoint" />
            <mxPoint x="1339" y="3764" as="targetPoint" />
          </mxGeometry>
        </mxCell>
        <mxCell id="PAuHiyZ5nTzHcIfETweL-151" value="" style="endArrow=classic;html=1;rounded=0;fontSize=16;exitX=1;exitY=0.5;exitDx=0;exitDy=0;entryX=0;entryY=0.5;entryDx=0;entryDy=0;" edge="1" parent="1" source="PAuHiyZ5nTzHcIfETweL-21" target="PAuHiyZ5nTzHcIfETweL-28">
          <mxGeometry width="50" height="50" relative="1" as="geometry">
            <mxPoint x="1543" y="3852" as="sourcePoint" />
            <mxPoint x="1604" y="3808" as="targetPoint" />
          </mxGeometry>
        </mxCell>
        <mxCell id="PAuHiyZ5nTzHcIfETweL-152" value="" style="endArrow=classic;html=1;rounded=0;fontSize=16;exitX=1;exitY=0.5;exitDx=0;exitDy=0;entryX=0;entryY=0.5;entryDx=0;entryDy=0;" edge="1" parent="1" source="PAuHiyZ5nTzHcIfETweL-24" target="PAuHiyZ5nTzHcIfETweL-31">
          <mxGeometry width="50" height="50" relative="1" as="geometry">
            <mxPoint x="1553" y="3862" as="sourcePoint" />
            <mxPoint x="1614" y="3818" as="targetPoint" />
          </mxGeometry>
        </mxCell>
        <mxCell id="PAuHiyZ5nTzHcIfETweL-153" value="" style="endArrow=classic;html=1;rounded=0;fontSize=16;exitX=1;exitY=0.5;exitDx=0;exitDy=0;" edge="1" parent="1" source="PAuHiyZ5nTzHcIfETweL-37">
          <mxGeometry width="50" height="50" relative="1" as="geometry">
            <mxPoint x="1429" y="3712" as="sourcePoint" />
            <mxPoint x="1568" y="3525" as="targetPoint" />
          </mxGeometry>
        </mxCell>
        <mxCell id="PAuHiyZ5nTzHcIfETweL-154" value="" style="endArrow=classic;html=1;rounded=0;fontSize=16;exitX=1;exitY=0.5;exitDx=0;exitDy=0;entryX=0;entryY=0.5;entryDx=0;entryDy=0;" edge="1" parent="1" source="PAuHiyZ5nTzHcIfETweL-34" target="PAuHiyZ5nTzHcIfETweL-38">
          <mxGeometry width="50" height="50" relative="1" as="geometry">
            <mxPoint x="1439" y="3722" as="sourcePoint" />
            <mxPoint x="1500" y="3678" as="targetPoint" />
          </mxGeometry>
        </mxCell>
        <mxCell id="PAuHiyZ5nTzHcIfETweL-155" value="" style="endArrow=classic;html=1;rounded=0;fontSize=16;exitX=1;exitY=0.5;exitDx=0;exitDy=0;entryX=0;entryY=0.5;entryDx=0;entryDy=0;" edge="1" parent="1" source="PAuHiyZ5nTzHcIfETweL-25" target="PAuHiyZ5nTzHcIfETweL-37">
          <mxGeometry width="50" height="50" relative="1" as="geometry">
            <mxPoint x="1449" y="3732" as="sourcePoint" />
            <mxPoint x="1510" y="3688" as="targetPoint" />
          </mxGeometry>
        </mxCell>
        <mxCell id="PAuHiyZ5nTzHcIfETweL-156" value="" style="endArrow=classic;html=1;rounded=0;fontSize=16;exitX=1;exitY=0.5;exitDx=0;exitDy=0;entryX=0;entryY=0.5;entryDx=0;entryDy=0;" edge="1" parent="1" source="PAuHiyZ5nTzHcIfETweL-25" target="PAuHiyZ5nTzHcIfETweL-38">
          <mxGeometry width="50" height="50" relative="1" as="geometry">
            <mxPoint x="1459" y="3742" as="sourcePoint" />
            <mxPoint x="1520" y="3698" as="targetPoint" />
          </mxGeometry>
        </mxCell>
        <mxCell id="PAuHiyZ5nTzHcIfETweL-157" value="" style="endArrow=classic;html=1;rounded=0;fontSize=16;exitX=1;exitY=0.5;exitDx=0;exitDy=0;" edge="1" parent="1" source="PAuHiyZ5nTzHcIfETweL-26">
          <mxGeometry width="50" height="50" relative="1" as="geometry">
            <mxPoint x="1469" y="3752" as="sourcePoint" />
            <mxPoint x="1436" y="3524" as="targetPoint" />
          </mxGeometry>
        </mxCell>
        <mxCell id="PAuHiyZ5nTzHcIfETweL-158" value="" style="endArrow=classic;html=1;rounded=0;fontSize=16;exitX=1;exitY=0.5;exitDx=0;exitDy=0;" edge="1" parent="1" source="PAuHiyZ5nTzHcIfETweL-26">
          <mxGeometry width="50" height="50" relative="1" as="geometry">
            <mxPoint x="1479" y="3762" as="sourcePoint" />
            <mxPoint x="1433" y="3581" as="targetPoint" />
          </mxGeometry>
        </mxCell>
        <mxCell id="PAuHiyZ5nTzHcIfETweL-159" value="" style="endArrow=classic;html=1;rounded=0;fontSize=16;exitX=1;exitY=0.5;exitDx=0;exitDy=0;entryX=0;entryY=0.5;entryDx=0;entryDy=0;" edge="1" parent="1" source="PAuHiyZ5nTzHcIfETweL-27" target="PAuHiyZ5nTzHcIfETweL-37">
          <mxGeometry width="50" height="50" relative="1" as="geometry">
            <mxPoint x="1489" y="3772" as="sourcePoint" />
            <mxPoint x="1550" y="3728" as="targetPoint" />
          </mxGeometry>
        </mxCell>
        <mxCell id="PAuHiyZ5nTzHcIfETweL-160" value="" style="endArrow=classic;html=1;rounded=0;fontSize=16;exitX=1;exitY=0.5;exitDx=0;exitDy=0;" edge="1" parent="1" source="PAuHiyZ5nTzHcIfETweL-27">
          <mxGeometry width="50" height="50" relative="1" as="geometry">
            <mxPoint x="1499" y="3782" as="sourcePoint" />
            <mxPoint x="1435" y="3583" as="targetPoint" />
          </mxGeometry>
        </mxCell>
        <mxCell id="PAuHiyZ5nTzHcIfETweL-161" value="" style="endArrow=classic;html=1;rounded=0;fontSize=16;exitX=1;exitY=0.5;exitDx=0;exitDy=0;" edge="1" parent="1" source="PAuHiyZ5nTzHcIfETweL-28">
          <mxGeometry width="50" height="50" relative="1" as="geometry">
            <mxPoint x="1509" y="3792" as="sourcePoint" />
            <mxPoint x="1434" y="3521" as="targetPoint" />
          </mxGeometry>
        </mxCell>
        <mxCell id="PAuHiyZ5nTzHcIfETweL-162" value="" style="endArrow=classic;html=1;rounded=0;fontSize=16;exitX=1;exitY=0.5;exitDx=0;exitDy=0;entryX=0;entryY=0.5;entryDx=0;entryDy=0;" edge="1" parent="1" source="PAuHiyZ5nTzHcIfETweL-28" target="PAuHiyZ5nTzHcIfETweL-38">
          <mxGeometry width="50" height="50" relative="1" as="geometry">
            <mxPoint x="1519" y="3802" as="sourcePoint" />
            <mxPoint x="1580" y="3758" as="targetPoint" />
          </mxGeometry>
        </mxCell>
        <mxCell id="PAuHiyZ5nTzHcIfETweL-163" value="" style="endArrow=classic;html=1;rounded=0;fontSize=16;exitX=1;exitY=0.5;exitDx=0;exitDy=0;entryX=0;entryY=0.5;entryDx=0;entryDy=0;" edge="1" parent="1" source="PAuHiyZ5nTzHcIfETweL-29" target="PAuHiyZ5nTzHcIfETweL-37">
          <mxGeometry width="50" height="50" relative="1" as="geometry">
            <mxPoint x="1529" y="3812" as="sourcePoint" />
            <mxPoint x="1590" y="3768" as="targetPoint" />
          </mxGeometry>
        </mxCell>
        <mxCell id="PAuHiyZ5nTzHcIfETweL-164" value="" style="endArrow=classic;html=1;rounded=0;fontSize=16;exitX=1;exitY=0.5;exitDx=0;exitDy=0;entryX=0;entryY=0.5;entryDx=0;entryDy=0;" edge="1" parent="1" source="PAuHiyZ5nTzHcIfETweL-29" target="PAuHiyZ5nTzHcIfETweL-38">
          <mxGeometry width="50" height="50" relative="1" as="geometry">
            <mxPoint x="1539" y="3822" as="sourcePoint" />
            <mxPoint x="1600" y="3778" as="targetPoint" />
          </mxGeometry>
        </mxCell>
        <mxCell id="PAuHiyZ5nTzHcIfETweL-165" value="" style="endArrow=classic;html=1;rounded=0;fontSize=16;exitX=1;exitY=0.5;exitDx=0;exitDy=0;entryX=0;entryY=0.5;entryDx=0;entryDy=0;" edge="1" parent="1" source="PAuHiyZ5nTzHcIfETweL-30" target="PAuHiyZ5nTzHcIfETweL-37">
          <mxGeometry width="50" height="50" relative="1" as="geometry">
            <mxPoint x="1549" y="3832" as="sourcePoint" />
            <mxPoint x="1610" y="3788" as="targetPoint" />
          </mxGeometry>
        </mxCell>
        <mxCell id="PAuHiyZ5nTzHcIfETweL-166" value="" style="endArrow=classic;html=1;rounded=0;fontSize=16;exitX=1;exitY=0.5;exitDx=0;exitDy=0;entryX=0;entryY=0.5;entryDx=0;entryDy=0;" edge="1" parent="1" source="PAuHiyZ5nTzHcIfETweL-30" target="PAuHiyZ5nTzHcIfETweL-38">
          <mxGeometry width="50" height="50" relative="1" as="geometry">
            <mxPoint x="1559" y="3842" as="sourcePoint" />
            <mxPoint x="1620" y="3798" as="targetPoint" />
          </mxGeometry>
        </mxCell>
        <mxCell id="PAuHiyZ5nTzHcIfETweL-167" value="" style="endArrow=classic;html=1;rounded=0;fontSize=16;exitX=1;exitY=0.5;exitDx=0;exitDy=0;entryX=0;entryY=0.5;entryDx=0;entryDy=0;" edge="1" parent="1" source="PAuHiyZ5nTzHcIfETweL-31" target="PAuHiyZ5nTzHcIfETweL-37">
          <mxGeometry width="50" height="50" relative="1" as="geometry">
            <mxPoint x="1569" y="3852" as="sourcePoint" />
            <mxPoint x="1630" y="3808" as="targetPoint" />
          </mxGeometry>
        </mxCell>
        <mxCell id="PAuHiyZ5nTzHcIfETweL-168" value="" style="endArrow=classic;html=1;rounded=0;fontSize=16;entryX=0;entryY=0.5;entryDx=0;entryDy=0;" edge="1" parent="1" target="PAuHiyZ5nTzHcIfETweL-38">
          <mxGeometry width="50" height="50" relative="1" as="geometry">
            <mxPoint x="1376" y="3668" as="sourcePoint" />
            <mxPoint x="1500" y="3678" as="targetPoint" />
          </mxGeometry>
        </mxCell>
        <mxCell id="PAuHiyZ5nTzHcIfETweL-169" value="" style="endArrow=classic;html=1;rounded=0;fontSize=16;exitX=1;exitY=0.5;exitDx=0;exitDy=0;" edge="1" parent="1" source="PAuHiyZ5nTzHcIfETweL-32">
          <mxGeometry width="50" height="50" relative="1" as="geometry">
            <mxPoint x="1449" y="3732" as="sourcePoint" />
            <mxPoint x="1435" y="3523" as="targetPoint" />
          </mxGeometry>
        </mxCell>
        <mxCell id="PAuHiyZ5nTzHcIfETweL-170" value="" style="endArrow=classic;html=1;rounded=0;fontSize=16;entryX=0;entryY=0.5;entryDx=0;entryDy=0;" edge="1" parent="1" target="PAuHiyZ5nTzHcIfETweL-38">
          <mxGeometry width="50" height="50" relative="1" as="geometry">
            <mxPoint x="1375" y="3716" as="sourcePoint" />
            <mxPoint x="1520" y="3698" as="targetPoint" />
          </mxGeometry>
        </mxCell>
        <mxCell id="PAuHiyZ5nTzHcIfETweL-171" value="" style="endArrow=classic;html=1;rounded=0;fontSize=16;exitX=1;exitY=0.5;exitDx=0;exitDy=0;" edge="1" parent="1" source="PAuHiyZ5nTzHcIfETweL-33">
          <mxGeometry width="50" height="50" relative="1" as="geometry">
            <mxPoint x="1469" y="3752" as="sourcePoint" />
            <mxPoint x="1435" y="3524" as="targetPoint" />
          </mxGeometry>
        </mxCell>
        <mxCell id="PAuHiyZ5nTzHcIfETweL-172" value="" style="endArrow=classic;html=1;rounded=0;fontSize=16;exitX=1;exitY=0.5;exitDx=0;exitDy=0;entryX=0;entryY=0.5;entryDx=0;entryDy=0;" edge="1" parent="1" source="PAuHiyZ5nTzHcIfETweL-33" target="PAuHiyZ5nTzHcIfETweL-38">
          <mxGeometry width="50" height="50" relative="1" as="geometry">
            <mxPoint x="1479" y="3762" as="sourcePoint" />
            <mxPoint x="1540" y="3718" as="targetPoint" />
          </mxGeometry>
        </mxCell>
        <mxCell id="PAuHiyZ5nTzHcIfETweL-173" value="" style="endArrow=classic;html=1;rounded=0;fontSize=16;exitX=1;exitY=0.5;exitDx=0;exitDy=0;entryX=0;entryY=0.5;entryDx=0;entryDy=0;" edge="1" parent="1" source="PAuHiyZ5nTzHcIfETweL-35" target="PAuHiyZ5nTzHcIfETweL-37">
          <mxGeometry width="50" height="50" relative="1" as="geometry">
            <mxPoint x="1489" y="3772" as="sourcePoint" />
            <mxPoint x="1550" y="3728" as="targetPoint" />
          </mxGeometry>
        </mxCell>
        <mxCell id="PAuHiyZ5nTzHcIfETweL-174" value="" style="endArrow=classic;html=1;rounded=0;fontSize=16;exitX=1;exitY=0.5;exitDx=0;exitDy=0;entryX=0;entryY=0.5;entryDx=0;entryDy=0;" edge="1" parent="1" source="PAuHiyZ5nTzHcIfETweL-35" target="PAuHiyZ5nTzHcIfETweL-38">
          <mxGeometry width="50" height="50" relative="1" as="geometry">
            <mxPoint x="1499" y="3782" as="sourcePoint" />
            <mxPoint x="1560" y="3738" as="targetPoint" />
          </mxGeometry>
        </mxCell>
        <mxCell id="PAuHiyZ5nTzHcIfETweL-175" value="" style="endArrow=classic;html=1;rounded=0;fontSize=16;exitX=1;exitY=0.5;exitDx=0;exitDy=0;entryX=0;entryY=0.5;entryDx=0;entryDy=0;" edge="1" parent="1" source="PAuHiyZ5nTzHcIfETweL-38" target="PAuHiyZ5nTzHcIfETweL-41">
          <mxGeometry width="50" height="50" relative="1" as="geometry">
            <mxPoint x="1509" y="3792" as="sourcePoint" />
            <mxPoint x="1570" y="3748" as="targetPoint" />
          </mxGeometry>
        </mxCell>
        <mxCell id="PAuHiyZ5nTzHcIfETweL-176" value="weight1" style="text;html=1;align=center;verticalAlign=middle;resizable=0;points=[];autosize=1;strokeColor=none;fillColor=none;fontSize=16;" vertex="1" parent="1">
          <mxGeometry x="1132" y="3293" width="73" height="31" as="geometry" />
        </mxCell>
        <mxCell id="PAuHiyZ5nTzHcIfETweL-177" value="weight2&lt;span style=&quot;color: rgba(0, 0, 0, 0); font-family: monospace; font-size: 0px; text-align: start;&quot;&gt;%3CmxGraphModel%3E%3Croot%3E%3CmxCell%20id%3D%220%22%2F%3E%3CmxCell%20id%3D%221%22%20parent%3D%220%22%2F%3E%3CmxCell%20id%3D%222%22%20value%3D%22weight1%22%20style%3D%22text%3Bhtml%3D1%3Balign%3Dcenter%3BverticalAlign%3Dmiddle%3Bresizable%3D0%3Bpoints%3D%5B%5D%3Bautosize%3D1%3BstrokeColor%3Dnone%3BfillColor%3Dnone%3BfontSize%3D16%3B%22%20vertex%3D%221%22%20parent%3D%221%22%3E%3CmxGeometry%20x%3D%221132%22%20y%3D%223293%22%20width%3D%2273%22%20height%3D%2231%22%20as%3D%22geometry%22%2F%3E%3C%2FmxCell%3E%3C%2Froot%3E%3C%2FmxGraphModel%3E&lt;/span&gt;" style="text;html=1;align=center;verticalAlign=middle;resizable=0;points=[];autosize=1;strokeColor=none;fillColor=none;fontSize=16;" vertex="1" parent="1">
          <mxGeometry x="1258" y="3291" width="73" height="31" as="geometry" />
        </mxCell>
        <mxCell id="PAuHiyZ5nTzHcIfETweL-178" value="weight3" style="text;html=1;align=center;verticalAlign=middle;resizable=0;points=[];autosize=1;strokeColor=none;fillColor=none;fontSize=16;" vertex="1" parent="1">
          <mxGeometry x="1406" y="3405" width="73" height="31" as="geometry" />
        </mxCell>
        <mxCell id="PAuHiyZ5nTzHcIfETweL-179" value="IO特征输入层" style="text;html=1;align=center;verticalAlign=middle;resizable=0;points=[];autosize=1;strokeColor=none;fillColor=none;fontSize=10;" vertex="1" parent="1">
          <mxGeometry x="1057" y="3850" width="91" height="26" as="geometry" />
        </mxCell>
        <mxCell id="PAuHiyZ5nTzHcIfETweL-180" value="第一隐藏层" style="text;html=1;align=center;verticalAlign=middle;resizable=0;points=[];autosize=1;strokeColor=none;fillColor=none;fontSize=10;" vertex="1" parent="1">
          <mxGeometry x="1194" y="3850" width="78" height="26" as="geometry" />
        </mxCell>
        <mxCell id="PAuHiyZ5nTzHcIfETweL-181" value="第二隐藏层" style="text;html=1;align=center;verticalAlign=middle;resizable=0;points=[];autosize=1;strokeColor=none;fillColor=none;fontSize=10;" vertex="1" parent="1">
          <mxGeometry x="1322" y="3850" width="78" height="26" as="geometry" />
        </mxCell>
        <mxCell id="PAuHiyZ5nTzHcIfETweL-182" value="诊断结果输出层" style="text;html=1;align=center;verticalAlign=middle;resizable=0;points=[];autosize=1;strokeColor=none;fillColor=none;fontSize=10;" vertex="1" parent="1">
          <mxGeometry x="1527" y="3847" width="102" height="26" as="geometry" />
        </mxCell>
      </root>
    </mxGraphModel>
  </diagram>
</mxfile>
